<?xml version="1.0" standalone="no"?><!DOCTYPE svg PUBLIC "-//W3C//DTD SVG 1.1//EN" "http://www.w3.org/Graphics/SVG/1.1/DTD/svg11.dtd"><svg t="1581164629078" class="icon" viewBox="0 0 1024 1024" version="1.1" xmlns="http://www.w3.org/2000/svg" p-id="11664" xmlns:xlink="http://www.w3.org/1999/xlink" width="32" height="32"><defs><style type="text/css"></style></defs><path d="M512 140.288c-203.776 0-369.664 165.888-369.664 369.664S308.224 879.616 512 879.616c203.776 0 369.664-165.888 369.664-369.664 0-203.776-165.888-369.664-369.664-369.664z m151.04 528.896c-5.12 5.12-11.776 7.68-18.432 7.68-7.168 0-13.824-2.56-18.432-7.68L493.568 536.576c-5.12-5.12-7.68-11.776-7.68-18.432V301.056c0-14.336 11.776-26.112 26.112-26.112s26.112 11.776 26.112 26.112v206.848L663.04 632.832c10.24 9.728 10.24 26.112 0 36.352z" fill="#1296db" p-id="11665"></path></svg>